<?xml version="1.0" encoding="utf-8"?>
<!-- Generator: Adobe Illustrator 26.5.0, SVG Export Plug-In . SVG Version: 6.00 Build 0)  -->
<svg version="1.1" id="katman_1" xmlns="http://www.w3.org/2000/svg" xmlns:xlink="http://www.w3.org/1999/xlink" x="0px" y="0px"
	 viewBox="0 0 595.28 841.89" style="enable-background:new 0 0 595.28 841.89;" xml:space="preserve">
<style type="text/css">
	.st0{display:none;}
	.st1{display:inline;fill:#FFFFFF;}
	.st2{display:inline;}
	.st3{fill:#FFFFFF;}
	.st4{fill:none;stroke:#FFFFFF;stroke-width:4;stroke-miterlimit:10;}
	.st5{fill:none;stroke:#FFFFFF;stroke-width:3;stroke-miterlimit:10;}
	.st6{fill:none;stroke:#FFFFFF;stroke-width:2;stroke-miterlimit:10;}
</style>
<g class="st0">
	<circle class="st1" cx="869.34" cy="281.65" r="9.16"/>
	<circle class="st2" cx="869.34" cy="281.65" r="7.28"/>
</g>
<g class="st0">
	<circle class="st1" cx="939.23" cy="325.86" r="9.4"/>
	<circle class="st2" cx="939.23" cy="325.86" r="7.47"/>
</g>
<g class="st0">
	<circle class="st1" cx="878.5" cy="412.9" r="14.59"/>
	<circle class="st2" cx="878.5" cy="412.9" r="11.58"/>
</g>
<g class="st0">
	<circle class="st1" cx="807.33" cy="377.84" r="7.02"/>
	<circle class="st2" cx="807.33" cy="377.84" r="5.57"/>
</g>
<g>
	<circle class="st3" cx="293.6" cy="414.35" r="49.32"/>
	<path class="st4" d="M303.09,356.56c28.3,4.32,49.99,28.77,49.99,58.29c0,32.57-26.4,58.97-58.97,58.97s-58.97-26.4-58.97-58.97
		c0-29.87,22.2-54.55,51-58.43"/>
	<path class="st4" d="M229.3,445.59c-2.4-4.98-4.26-10.32-5.49-15.97c-8.44-38.72,16.12-76.95,54.84-85.39
		c35.93-7.83,71.43,12.74,83.1,46.68"/>
	<path class="st4" d="M229.3,445.59"/>
	<path class="st4" d="M290.61,486.05c-21.9-1-42.05-12.05-54.74-29.49"/>
	<path class="st4" d="M365.37,407.66c3.15,33.17-17.17,64.37-48.91,74.83"/>
	<g>
		<circle class="st5" cx="303.78" cy="486.13" r="13.18"/>
		<path class="st6" d="M235.86,456.56c-0.95,0.57-2.07,0.89-3.26,0.89c-3.53,0-6.39-2.86-6.39-6.39c0-3.53,2.86-6.39,6.39-6.39
			s6.39,2.86,6.39,6.39C239,453.4,237.74,455.45,235.86,456.56"/>
		<circle class="st6" cx="294.62" cy="354.87" r="8.62"/>
		<circle class="st6" cx="364.51" cy="399.09" r="8.62"/>
	</g>
</g>
</svg>
