<svg version="1.1" id="katman_1" xmlns="http://www.w3.org/2000/svg" x="0" y="0" viewBox="0 0 595.28 841.89" style="enable-background:new 0 0 595.28 841.89" xml:space="preserve">
  <style>
    .st4,.st6{fill:none;stroke:#fff;stroke-width:4;stroke-miterlimit:10}.st6{stroke-width:2}
  </style>
  <circle cx="293.6" cy="414.35" r="49.32" style="fill:#fff"/>
  <path class="st4" d="M303.09 356.56c28.3 4.32 49.99 28.77 49.99 58.29 0 32.57-26.4 58.97-58.97 58.97s-58.97-26.4-58.97-58.97c0-29.87 22.2-54.55 51-58.43"/>
  <path class="st4" d="M229.3 445.59a72.023 72.023 0 0 1-5.49-15.97c-8.44-38.72 16.12-76.95 54.84-85.39 35.93-7.83 71.43 12.74 83.1 46.68m-71.14 95.14c-21.9-1-42.05-12.05-54.74-29.49m129.5-48.9c3.15 33.17-17.17 64.37-48.91 74.83"/>
  <circle cx="303.78" cy="486.13" r="13.18" style="fill:none;stroke:#fff;stroke-width:3;stroke-miterlimit:10"/>
  <path class="st6" d="M235.86 456.56c-.95.57-2.07.89-3.26.89-3.53 0-6.39-2.86-6.39-6.39s2.86-6.39 6.39-6.39 6.39 2.86 6.39 6.39a6.351 6.351 0 0 1-3.13 5.5"/>
  <circle class="st6" cx="294.62" cy="354.87" r="8.62"/>
  <circle class="st6" cx="364.51" cy="399.09" r="8.62"/>
</svg>
